<svg width="32" height="32" viewBox="0 0 32 32" xmlns="http://www.w3.org/2000/svg">
  <!-- Background circle with gradient -->
  <defs>
    <linearGradient id="bgGradient" x1="0%" y1="0%" x2="100%" y2="100%">
      <stop offset="0%" style="stop-color:#ff6b6b;stop-opacity:1" />
      <stop offset="50%" style="stop-color:#ee5a52;stop-opacity:1" />
      <stop offset="100%" style="stop-color:#ff8a80;stop-opacity:1" />
    </linearGradient>
    <linearGradient id="docGradient" x1="0%" y1="0%" x2="100%" y2="100%">
      <stop offset="0%" style="stop-color:#ffffff;stop-opacity:1" />
      <stop offset="100%" style="stop-color:#f8f9fa;stop-opacity:1" />
    </linearGradient>
  </defs>
  
  <!-- Background circle -->
  <circle cx="16" cy="16" r="15" fill="url(#bgGradient)" stroke="#e53e3e" stroke-width="1"/>
  
  <!-- Document icon -->
  <rect x="9" y="7" width="10" height="13" rx="1" fill="url(#docGradient)" stroke="#e2e8f0" stroke-width="0.5"/>
  
  <!-- Document fold corner -->
  <path d="M16 7 L19 7 L19 10 L16 7 Z" fill="#e2e8f0"/>
  <path d="M16 7 L16 10 L19 10" stroke="#cbd5e0" stroke-width="0.5" fill="none"/>
  
  <!-- Document lines -->
  <rect x="10.5" y="11.5" width="5.5" height="0.75" rx="0.375" fill="#4a5568"/>
  <rect x="10.5" y="13.5" width="7" height="0.75" rx="0.375" fill="#718096"/>
  <rect x="10.5" y="15.5" width="4.5" height="0.75" rx="0.375" fill="#718096"/>
  <rect x="10.5" y="17.5" width="6" height="0.75" rx="0.375" fill="#718096"/>
  
  <!-- Processing arrow/swoosh -->
  <path d="M7.5 22.5 Q10 21 12.5 22.5 Q15 24 17.5 22.5 Q20 21 22.5 22.5" stroke="#ffffff" stroke-width="1.25" stroke-linecap="round" fill="none"/>
  
  <!-- Small processing dots -->
  <circle cx="24" cy="10" r="1" fill="#ffffff" opacity="0.8"/>
  <circle cx="26" cy="12" r="0.75" fill="#ffffff" opacity="0.6"/>
  <circle cx="25" cy="14" r="0.5" fill="#ffffff" opacity="0.4"/>
</svg>
